<svg viewBox="0 0 96 96" xmlns="http://www.w3.org/2000/svg" xmlns:xlink="http://www.w3.org/1999/xlink" id="Icons_Blog_LTR_M" overflow="hidden"><g id="Icons"><rect x="14.1094" y="42" width="60" height="2"/><path d="M82.126 77.0254 6 77.0254 6 33 82.126 33 82.126 36.9429C82.7119 36.4942 83.3984 36.1953 84.126 36.072L84.126 17 4 17 4 79.0254 84.126 79.0254 84.126 53.0591 82.126 55.0691ZM82.126 19 82.126 31 6 31 6 19Z"/><path d="M69.002 50 45.109 50 45.109 52 67.006 52 69.002 50Z"/><path d="M60.938 58 45.109 58 45.109 60 60.275 60 60.938 58Z"/><path d="M45.109 68 57.622 68 58.285 66 45.109 66 45.109 68Z"/><circle cx="59.1094" cy="25" r="2"/><circle cx="66.1094" cy="25" r="2"/><circle cx="73.1094" cy="25" r="2"/><path d="M14.1094 68 41.1094 68 41.1094 50 14.1094 50ZM22.7994 60.6619 25.1094 62.2019 27.4194 60.6619 30.7048 66 19.5139 66ZM23.8485 58.9573 25.1096 56.9082 26.3707 58.9573 25.1096 59.7979ZM31.142 62.8938 32.3645 60.9082 35.4979 66 33.0535 66ZM16.1094 52 39.1094 52 39.1094 66 37.8464 66 32.3643 57.0918 29.9675 60.9858 25.1094 53.0918 17.1653 66 16.1094 66Z"/><circle cx="21.1094" cy="54" r="1"/><path d="M89.498 41.6084C89.4502 41.5547 89.4014 41.5049 89.3623 41.4668L86.6553 38.7588C86.1885 38.2785 85.5487 38.0052 84.8789 38 84.1972 38.0082 83.5446 38.2769 83.0547 38.751L62.6484 59.1973 59.5391 68.5723 68.957 65.4658 86.6426 47.6958 89.2705 45.0658C90.287 44.1734 90.3888 42.6263 89.498 41.6084ZM67.5039 63.8389 63.6382 65.1147 63.0037 64.4802 64.2905 60.6002C65.2154 59.7777 66.6228 59.8249 67.4905 60.7076 68.3569 61.5694 68.3629 62.9697 67.5039 63.8389ZM70.0769 61.5068C69.9229 60.6612 69.5096 59.8845 68.8945 59.2842 68.2671 58.6561 67.4615 58.2365 66.5872 58.0823L81.1678 43.4723 84.61 46.9146ZM87.9053 43.6055 86.021 45.4976 82.581 42.0576 84.4848 40.1499C84.5822 40.0537 84.7137 39.9998 84.8506 40 84.9965 39.9948 85.137 40.0554 85.2334 40.165L87.9961 42.93C88.1588 43.1322 88.1268 43.4281 87.9245 43.5908 87.9183 43.5959 87.9118 43.6008 87.9053 43.6055Z"/></g></svg>