<svg viewBox="0 0 96 96" xmlns="http://www.w3.org/2000/svg" xmlns:xlink="http://www.w3.org/1999/xlink" id="Icons_ChatBubble_LTR" overflow="hidden"><path d="M78.6 17 17.4 17C15.5112 17.011 13.989 18.5511 14 20.4399 14 20.4399 14 20.44 14 20.44L14 61.78C13.9889 63.6688 15.5111 65.2089 17.3999 65.22 17.3999 65.22 17.4 65.22 17.4 65.22L54.8 65.22 68.4 79 68.4 65.22 78.6 65.22C80.4888 65.209 82.011 63.6689 82 61.7801 82 61.7801 82 61.78 82 61.78L82 20.44C82.0111 18.5512 80.4889 17.0111 78.6001 17 78.6001 17 78.6 17 78.6 17ZM32 46C29.2386 46 27 43.7614 27 41 27 38.2386 29.2386 36 32 36 34.7614 36 37 38.2386 37 41 37 43.7614 34.7614 46 32 46ZM48 46C45.2386 46 43 43.7614 43 41 43 38.2386 45.2386 36 48 36 50.7614 36 53 38.2386 53 41 53 43.7614 50.7614 46 48 46ZM64 46C61.2386 46 59 43.7614 59 41 59 38.2386 61.2386 36 64 36 66.7614 36 69 38.2386 69 41 69 43.7614 66.7614 46 64 46Z"/></svg>